<?xml version="1.0" standalone="no"?><!DOCTYPE svg PUBLIC "-//W3C//DTD SVG 1.1//EN" "http://www.w3.org/Graphics/SVG/1.1/DTD/svg11.dtd"><svg t="1627552315664" class="icon" viewBox="0 0 1024 1024" version="1.1" xmlns="http://www.w3.org/2000/svg" p-id="30053" xmlns:xlink="http://www.w3.org/1999/xlink" width="128" height="128"><defs><style type="text/css">@font-face { font-family: feedback-iconfont; src: url("//at.alicdn.com/t/font_1031158_1uhr8ri0pk5.eot?#iefix") format("embedded-opentype"), url("//at.alicdn.com/t/font_1031158_1uhr8ri0pk5.woff2") format("woff2"), url("//at.alicdn.com/t/font_1031158_1uhr8ri0pk5.woff") format("woff"), url("//at.alicdn.com/t/font_1031158_1uhr8ri0pk5.ttf") format("truetype"), url("//at.alicdn.com/t/font_1031158_1uhr8ri0pk5.svg#iconfont") format("svg"); }
</style></defs><path d="M910.2336 1024H113.7664C51.2 1024 0 972.8 0 910.2336V113.7664C0 51.2 51.2 0 113.7664 0h796.4672C972.8 0 1024 51.2 1024 113.7664v796.4672C1024 972.8 972.8 1024 910.2336 1024zM850.5088 253.824h-71.68l-101.3248 391.68c-5.3504 19.328-8.576 36.224-9.6768 50.688h-1.3312c-2.2272-20.0192-5.0944-36.4544-8.6528-49.3824L551.168 253.8496h-65.664L373.8368 643.84c-6.2464 21.9904-9.8816 39.6544-11.008 52.992h-1.9968a254.976 254.976 0 0 0-8.3456-52.992L247.168 253.824H173.4912l149.6832 516.352h77.0048l104.96-372.6592a249.0112 249.0112 0 0 0 9.344-52.6848h1.3312c0.9216 18.6624 3.6864 36.4288 8.3456 53.3248l104.0128 371.9936h77.6704l144.64-516.3264z" fill="#2E5EA6" p-id="30054" data-spm-anchor-id="a313x.7781069.0.i35" class="selected"></path></svg>