<?xml version="1.0" standalone="no"?><!DOCTYPE svg PUBLIC "-//W3C//DTD SVG 1.1//EN" "http://www.w3.org/Graphics/SVG/1.1/DTD/svg11.dtd"><svg t="1627455777514" class="icon" viewBox="0 0 1024 1024" version="1.1" xmlns="http://www.w3.org/2000/svg" p-id="1910" xmlns:xlink="http://www.w3.org/1999/xlink" width="128" height="128"><defs><style type="text/css">@font-face { font-family: feedback-iconfont; src: url("//at.alicdn.com/t/font_1031158_1uhr8ri0pk5.eot?#iefix") format("embedded-opentype"), url("//at.alicdn.com/t/font_1031158_1uhr8ri0pk5.woff2") format("woff2"), url("//at.alicdn.com/t/font_1031158_1uhr8ri0pk5.woff") format("woff"), url("//at.alicdn.com/t/font_1031158_1uhr8ri0pk5.ttf") format("truetype"), url("//at.alicdn.com/t/font_1031158_1uhr8ri0pk5.svg#iconfont") format("svg"); }
</style></defs><path d="M336.69866667 624.101a30.801 30.801 0 1 0 63.039 0 30.801 30.801 0 1 0-63.038 0z m262.99 0a30.801 30.801 0 1 0 63.037 0 30.801 30.801 0 1 0-63.037 0z m281.821-218.718s-9.282-79.594-51.964-125.765c0 0 30.007-16.164-2.303-43.842 0 0-28.825-6.924-34.614-4.603 0 0-14.973-50.786-44.979-63.477 0 0-25.401-6.16-31.188 18.465 0 0-67.462-34.322-116.248-42.988 0 0-124.576-23.941-158.028-81.908 0 0-7.225-14.703-30.847-6.064 0 0-22.54 17.877-15.63 89.413 0 0 1.926 14.629-94.235-46.91 0 0-23.83-6.15-30.738 12.298 0 0-12.277 43.84 3.07 76.158 0 0-55.372 9.988-79.258 33.846 0 0-26.88 34.621 18.46 40.003 0 0-67.635 38.459-79.22 146.909 0 0-1.353 76.092 23.042 160.503a96.063 96.063 0 0 0-5.623 44.326c4.764 44.065 38.812 79.014 82.893 85.201 13.907 42.315 37.644 81.083 70.055 113.493 54.438 54.44 126.819 84.42 203.807 84.42s149.37-29.98 203.808-84.42c33.104-33.104 57.143-72.847 70.917-116.22 42.516-5.446 76.437-37.905 83.273-80.361 3.315-20.598-0.159-40.963-9.03-58.588 15.168-44.548 28.314-99.574 24.58-149.89zM227.99666667 682.28c-34.119-8.148-59.748-36.671-63.563-71.965a83.181 83.181 0 0 1 0.088-18.627c6.146 17.761 13.512 35.604 22.355 52.917 0 0 18.251 18.252 37.067 11.517a287.165 287.165 0 0 0 2.71 13.735l1.343 12.423z m279.966 199.28c-130.877 0-240.674-91.933-268.243-214.609l-2.244-20.76c2.158-2.56 4.264-5.613 6.286-9.26 0 0 2.377-85.405 53.146-136.172 0 0 44.606 12.345 101.533-19.235 0 0-23.867 29.238-45.412 44.62 0 0-12.319 30.005 15.386 33.094 0 0 85.379 16.157 170.757-40.003 0 0-4.605 28.464 36.185 19.984 0 0 33.02-0.757 86.127-41.538 0 0 11.55 19.23 54.978-4.597 0 0-1.124 38.055 33.49 96.9 0 0 15.01 24.478 15.01 67.614 0 0 3.941 3.251 9.851 6.1l-3.555 22.083C737.18666667 798.913 632.05366667 881.559 507.96266667 881.559zM852.82666667 611.745c-5.58 34.649-32.11 61.567-66.044 68.327a288.21 288.21 0 0 0 2.913-12.22c10.411 0.582 21.853-4.293 29.481-23.616 0 0 15.437-28.599 31.024-70.149a82.776 82.776 0 0 1 2.626 37.658z" fill="#1296DB" p-id="1911"></path></svg>