<?xml version="1.0" standalone="no"?><!DOCTYPE svg PUBLIC "-//W3C//DTD SVG 1.1//EN" "http://www.w3.org/Graphics/SVG/1.1/DTD/svg11.dtd"><svg t="1627552475769" class="icon" viewBox="0 0 1024 1024" version="1.1" xmlns="http://www.w3.org/2000/svg" p-id="37151" xmlns:xlink="http://www.w3.org/1999/xlink" width="128" height="128"><defs><style type="text/css">@font-face { font-family: feedback-iconfont; src: url("//at.alicdn.com/t/font_1031158_1uhr8ri0pk5.eot?#iefix") format("embedded-opentype"), url("//at.alicdn.com/t/font_1031158_1uhr8ri0pk5.woff2") format("woff2"), url("//at.alicdn.com/t/font_1031158_1uhr8ri0pk5.woff") format("woff"), url("//at.alicdn.com/t/font_1031158_1uhr8ri0pk5.ttf") format("truetype"), url("//at.alicdn.com/t/font_1031158_1uhr8ri0pk5.svg#iconfont") format("svg"); }
</style></defs><path d="M910.2336 1024H113.7664C51.2 1024 0 972.8 0 910.2336V113.7664C0 51.2 51.2 0 113.7664 0h796.4672C972.8 0 1024 51.2 1024 113.7664v796.4672C1024 972.8 972.8 1024 910.2336 1024zM155.2128 555.4432h44.672c35.9936 1.2032 66.0224-8.704 89.984-29.6704 24.0128-20.9664 36.0192-48.3328 36.0192-82.1248 0-33.28-10.24-58.9568-30.7712-76.8768-20.5312-17.92-49.3568-26.88-86.5536-26.88h-97.792v344.2432h44.4416v-128.6912z m0-176.4352h45.3376c52.48 0 78.6688 22.1184 78.6688 66.432 0 22.8096-7.04 40.3456-21.12 52.5824-14.08 12.1856-34.6624 18.304-61.7728 18.304H155.2128v-137.3184z m234.0352 305.1008h94.6432c54.528 0 99.072-16.0768 133.6576-48.2048 34.6112-32.1536 51.8912-74.9056 51.8912-128.256 0-51.0976-17.28-91.8528-51.8912-122.2144-34.56-30.336-77.952-45.568-130.0992-45.568h-98.2016v344.2432z m44.416-304.6656h51.9936c41.0624 0 74.1632 10.8032 99.328 32.4608 25.216 21.6064 37.7856 53.888 37.7856 96.8704 0 43.008-12.2368 76.3392-36.7872 100.224-24.5248 23.8592-58.624 35.7632-102.3232 35.7632H433.664V379.4432z m479.5648 0v-39.5776h-177.3312v344.2432h44.4416v-150.4512h123.1104V494.592h-123.136v-115.1232h132.9152z" fill="#D93838" p-id="37152"></path></svg>