<?xml version="1.0" standalone="no"?><!DOCTYPE svg PUBLIC "-//W3C//DTD SVG 1.1//EN" "http://www.w3.org/Graphics/SVG/1.1/DTD/svg11.dtd"><svg t="1634214536916" class="icon" viewBox="0 0 1024 1024" version="1.1" xmlns="http://www.w3.org/2000/svg" p-id="1984" xmlns:xlink="http://www.w3.org/1999/xlink" width="200" height="200"><defs><style type="text/css"></style></defs><path d="M512 85.333333A426.666667 426.666667 0 0 0 151.68 740.48c5.973333 14.293333 1.706667 70.613333 0 94.72 0 15.573333-2.133333 29.226667-2.133333 39.466667a46.72 46.72 0 0 0 17.066666 36.266666c21.333333 18.133333 50.986667 12.586667 98.56 3.413334a332.8 332.8 0 0 1 79.573334-9.813334A426.666667 426.666667 0 1 0 512 85.333333z m106.666667 554.666667H405.333333a42.666667 42.666667 0 0 1 0-85.333333h213.333334a42.666667 42.666667 0 0 1 0 85.333333z m42.666666-170.666667H362.666667a42.666667 42.666667 0 0 1 0-85.333333h298.666666a42.666667 42.666667 0 0 1 0 85.333333z" p-id="1985" fill="#6BB4AB"></path></svg>