<?xml version="1.0" standalone="no"?><!DOCTYPE svg PUBLIC "-//W3C//DTD SVG 1.1//EN" "http://www.w3.org/Graphics/SVG/1.1/DTD/svg11.dtd"><svg t="1627455787172" class="icon" viewBox="0 0 1024 1024" version="1.1" xmlns="http://www.w3.org/2000/svg" p-id="2052" xmlns:xlink="http://www.w3.org/1999/xlink" width="128" height="128"><defs><style type="text/css">@font-face { font-family: feedback-iconfont; src: url("//at.alicdn.com/t/font_1031158_1uhr8ri0pk5.eot?#iefix") format("embedded-opentype"), url("//at.alicdn.com/t/font_1031158_1uhr8ri0pk5.woff2") format("woff2"), url("//at.alicdn.com/t/font_1031158_1uhr8ri0pk5.woff") format("woff"), url("//at.alicdn.com/t/font_1031158_1uhr8ri0pk5.ttf") format("truetype"), url("//at.alicdn.com/t/font_1031158_1uhr8ri0pk5.svg#iconfont") format("svg"); }
</style></defs><path d="M326.43413334 631.5744a32.8544 32.8544 0 1 0 67.2416 0 32.8544 32.8544 0 1 0-67.24053334 0z m280.52266666 0a32.8544 32.8544 0 1 0 67.23946667 0 32.8544 32.8544 0 1 0-67.23946667 0z m241.77386667-101.33866667c-0.048-4.58133333-0.16-9.19573333-0.3872-13.8592 0.14186667-2.45866667 0.28586667-4.93333333 0.43413333-7.43146666 0.4032-6.7808-0.72426667-14.13226667-3.03893333-21.85813334-14.81173333-114.86933333-85.55733333-241.60746667-250.0288-274.40853333a73.46986667 73.46986667 0 0 0 3.136-21.19893333c0-44.60906667-40.07253333-80.77226667-89.504-80.77226667s-89.50613333 36.1632-89.50613333 80.77226667a73.45066667 73.45066667 0 0 0 3.19466666 21.38453333c-183.49226667 37.4144-252.064 194.16533333-253.1008 318.26133333-25.6 18.9824-41.60533333 49.19466667-41.60533333 82.5664 0 42.5952 26.064 80.0608 64.896 95.56053334 36.93333333 234.42026667 52.5312 171.0848 52.5312 143.27146666 0-12.7136-5.48906667-48.9344-7.01226667-92.96853333 13.9776 25.69066667 31.72266667 49.52213333 52.98133334 70.78186667 58.06933333 58.06933333 135.27466667 90.048 217.3952 90.048s159.328-31.97866667 217.3952-90.048a310.7584 310.7584 0 0 0 36.34346666-43.68c-1.4336 39.01013333-2.5216 72.608-2.5216 85.0112 0 27.94986667 26.92373333-7.3408 55.30346667-126.31786667 2.94826667-12.36266667 5.58933333-23.96373333 7.97866667-34.9504 40.49706667-14.7264 67.92213333-53.0176 67.92213333-96.70933333 0-33.88906667-16.50346667-64.53333333-42.8064-83.45493334z m-706.21653333 83.456c0-25.23413333 10.6304-48.38186667 28.14826666-64.73813333 0.2336 1.984 0.51413333 3.824 0.85226667 5.48586667l-0.0064 0.01066666c6.896 54.1088 13.25866667 99.7024 19.11253333 138.0352-29.09653333-15.0144-48.10666667-45.0368-48.10666666-78.7936z m621.4208 144.256c-50.54613333 88.47893333-145.8304 148.24746667-254.8192 148.24746667-121.70986667 0-226.3296-74.5376-270.63786667-180.3552 1.33866667-62.40533333 13.81546667-131.80373333 59.67253333-171.33333333 49.31093333-42.50666667 73.3024-112.3456 84.89813334-166.09066667 10.73066667 47.21813333 35.1872 104.18133333 90.93973333 117.22453333 94.59946667 22.13013333 136.52373333 23.24053333 179.73866667 23.94986667 20.46933333 0.336 107.33333333-3.27466667 116.06613333 84.0992 0.00106667 0.00106667-3.184 74.5344-5.85813333 144.256z m63.2512-64.42773333c11.80266667-57.55413333 16.00533333-96.75306667 18.56426666-133.8496 1.08373333-3.0368 1.8816-6.912 2.3872-11.69386667 18.15146667 16.40213333 29.21066667 39.97333333 29.21066667 65.7152-0.00106667 34.5472-19.90826667 65.1872-50.16213333 79.82826667z" fill="#D4237A" p-id="2053"></path></svg>